<svg xmlns="http://www.w3.org/2000/svg" width="18" height="15" viewBox="0 0 18 15">
  <g id="Polygon_1" data-name="Polygon 1" fill="none" opacity="0.6">
    <path d="M8.143,1.429a1,1,0,0,1,1.715,0l7.234,12.056A1,1,0,0,1,16.234,15H1.766a1,1,0,0,1-.857-1.514Z" stroke="none"/>
    <path d="M 8.999999046325684 5.830966949462891 L 5.298581123352051 11.99999809265137 L 12.70141887664795 11.99999809265137 L 8.999999046325684 5.830966949462891 M 9 0.9436531066894531 C 9.331645011901855 0.9436531066894531 9.663290023803711 1.105487823486328 9.857489585876465 1.429158210754395 L 17.09130096435547 13.48550796508789 C 17.49122047424316 14.15202808380127 17.01110076904297 14.99999809265137 16.23381042480469 14.99999809265137 L 1.766189575195313 14.99999809265137 C 0.9888992309570313 14.99999809265137 0.5087795257568359 14.15202808380127 0.9087009429931641 13.48550796508789 L 8.142510414123535 1.429158210754395 C 8.336709976196289 1.105487823486328 8.668354988098145 0.9436531066894531 9 0.9436531066894531 Z" stroke="none" fill="#4543de"/>
  </g>
</svg>
