<svg id="Group_281" data-name="Group 281" xmlns="http://www.w3.org/2000/svg" width="37" height="37" viewBox="0 0 37 37">
  <path id="Path_380" data-name="Path 380" d="M225.914,181.208l-.309.333Z" transform="translate(-211.965 -170.253)" fill="#4543de"/>
  <path id="Path_381" data-name="Path 381" d="M213.78,157.227a3.218,3.218,0,0,1,.72,2.094,3.138,3.138,0,0,1-.493,1.663,4.062,4.062,0,0,1-.713.875l-.986.974a7.628,7.628,0,0,0-1.835,2.471,7.983,7.983,0,0,0-.419,2.839h2.193a6.059,6.059,0,0,1,.352-2.346,6.922,6.922,0,0,1,1.534-1.941,16.778,16.778,0,0,0,2.161-2.39,3.792,3.792,0,0,0,.536-2.119,4.671,4.671,0,0,0-1.46-3.542,6.1,6.1,0,0,0-8.014.234,6.039,6.039,0,0,0-1.5,4.28h2.193a5.937,5.937,0,0,1,.5-2.452,3.508,3.508,0,0,1,5.229-.639Z" transform="translate(-193.408 -145.082)" fill="#4543de"/>
  <path id="Path_382" data-name="Path 382" d="M37,18.5A18.5,18.5,0,1,0,18.5,37,18.5,18.5,0,0,0,37,18.5Zm-35.318,0A16.818,16.818,0,1,1,18.5,35.318,16.818,16.818,0,0,1,1.682,18.5Z" fill="#4543de"/>
  <rect id="Rectangle_33" data-name="Rectangle 33" width="2.452" height="2.561" transform="translate(16.596 25.103)" fill="#4543de"/>
</svg>
